<svg width="50" height="50" viewBox="0 0 50 50" fill="none" xmlns="http://www.w3.org/2000/svg">
    <path d="M18.75 24.48a2.604 2.604 0 1 0 0 5.208 2.604 2.604 0 0 0 0-5.209zm12.5 0a2.604 2.604 0 1 0 0 5.208 2.604 2.604 0 0 0 0-5.209zM25 4.166a20.833 20.833 0 1 0 0 41.666 20.833 20.833 0 0 0 0-41.666zm0 37.5c-9.188 0-16.667-7.48-16.667-16.667 0-.604 0-1.208.104-1.792a20.962 20.962 0 0 0 10.855-11.187c3.77 5.333 9.979 8.812 17 8.812 1.625 0 3.187-.187 4.687-.541.438 1.479.688 3.062.688 4.708 0 9.188-7.48 16.667-16.667 16.667z" fill="#DCDCDC" opacity=".5"/>
</svg>
