<svg width="50" height="50" viewBox="0 0 50 50" fill="none" xmlns="http://www.w3.org/2000/svg">
    <path d="M39.73 10.27C35.874 6.25 30.541 4.084 25 4.168c-5.542-.084-10.854 2.083-14.708 6.104C6.25 14.125 4.083 19.458 4.167 25c-.084 5.542 2.083 10.854 6.104 14.708 3.854 4.042 9.187 6.209 14.729 6.125 5.542.084 10.854-2.083 14.708-6.104 4.042-3.854 6.209-9.187 6.125-14.729.084-5.542-2.083-10.875-6.104-14.73zM35.416 25v12.5h-7.292V27.083h-6.25V37.5h-7.292V25h-4.166L25 10.417 40.625 25h-5.208z" fill="#989898"/>
</svg>
